<mxfile host="Electron" agent="Mozilla/5.0 (Windows NT 10.0; Win64; x64) AppleWebKit/537.36 (KHTML, like Gecko) draw.io/24.7.17 Chrome/128.0.6613.36 Electron/32.0.1 Safari/537.36" version="24.7.17">
  <diagram name="Страница — 1" id="EL5DPl63PdsC2D5pb-Sw">
    <mxGraphModel dx="1182" dy="723" grid="1" gridSize="10" guides="1" tooltips="1" connect="1" arrows="1" fold="1" page="1" pageScale="1" pageWidth="827" pageHeight="1169" math="0" shadow="0">
      <root>
        <mxCell id="0" />
        <mxCell id="1" parent="0" />
        <mxCell id="fWujzALV05YjA7OikKzZ-11" style="edgeStyle=orthogonalEdgeStyle;rounded=0;orthogonalLoop=1;jettySize=auto;html=1;entryX=0.5;entryY=0;entryDx=0;entryDy=0;" parent="1" source="fWujzALV05YjA7OikKzZ-8" target="fWujzALV05YjA7OikKzZ-10" edge="1">
          <mxGeometry relative="1" as="geometry" />
        </mxCell>
        <mxCell id="fWujzALV05YjA7OikKzZ-8" value="&lt;font style=&quot;font-size: 25px;&quot;&gt;Начало&lt;/font&gt;" style="rounded=1;whiteSpace=wrap;html=1;" parent="1" vertex="1">
          <mxGeometry x="20" y="10" width="140" height="60" as="geometry" />
        </mxCell>
        <mxCell id="fWujzALV05YjA7OikKzZ-13" style="edgeStyle=orthogonalEdgeStyle;rounded=0;orthogonalLoop=1;jettySize=auto;html=1;exitX=0.5;exitY=1;exitDx=0;exitDy=0;entryX=0.5;entryY=0;entryDx=0;entryDy=0;" parent="1" source="fWujzALV05YjA7OikKzZ-10" target="fWujzALV05YjA7OikKzZ-12" edge="1">
          <mxGeometry relative="1" as="geometry" />
        </mxCell>
        <mxCell id="fWujzALV05YjA7OikKzZ-10" value="&lt;font style=&quot;font-size: 20px;&quot;&gt;Ввести х&lt;/font&gt;" style="shape=parallelogram;perimeter=parallelogramPerimeter;whiteSpace=wrap;html=1;fixedSize=1;" parent="1" vertex="1">
          <mxGeometry x="20" y="90" width="140" height="30" as="geometry" />
        </mxCell>
        <mxCell id="fWujzALV05YjA7OikKzZ-15" style="edgeStyle=orthogonalEdgeStyle;rounded=0;orthogonalLoop=1;jettySize=auto;html=1;entryX=0.5;entryY=0;entryDx=0;entryDy=0;" parent="1" source="fWujzALV05YjA7OikKzZ-12" target="fWujzALV05YjA7OikKzZ-14" edge="1">
          <mxGeometry relative="1" as="geometry" />
        </mxCell>
        <mxCell id="fWujzALV05YjA7OikKzZ-20" value="&lt;font style=&quot;font-size: 20px;&quot;&gt;True&lt;/font&gt;" style="edgeLabel;html=1;align=center;verticalAlign=middle;resizable=0;points=[];" parent="fWujzALV05YjA7OikKzZ-15" vertex="1" connectable="0">
          <mxGeometry x="-0.2687" relative="1" as="geometry">
            <mxPoint x="13" as="offset" />
          </mxGeometry>
        </mxCell>
        <mxCell id="fWujzALV05YjA7OikKzZ-22" style="edgeStyle=orthogonalEdgeStyle;rounded=0;orthogonalLoop=1;jettySize=auto;html=1;entryX=0.5;entryY=0;entryDx=0;entryDy=0;" parent="1" source="fWujzALV05YjA7OikKzZ-12" target="fWujzALV05YjA7OikKzZ-21" edge="1">
          <mxGeometry relative="1" as="geometry" />
        </mxCell>
        <mxCell id="fWujzALV05YjA7OikKzZ-23" value="&lt;font style=&quot;font-size: 20px;&quot;&gt;False&lt;/font&gt;" style="edgeLabel;html=1;align=center;verticalAlign=middle;resizable=0;points=[];" parent="fWujzALV05YjA7OikKzZ-22" vertex="1" connectable="0">
          <mxGeometry x="-0.1455" y="-1" relative="1" as="geometry">
            <mxPoint as="offset" />
          </mxGeometry>
        </mxCell>
        <mxCell id="fWujzALV05YjA7OikKzZ-12" value="&lt;font style=&quot;font-size: 20px;&quot;&gt;x &amp;lt; -8&lt;/font&gt;" style="rhombus;whiteSpace=wrap;html=1;" parent="1" vertex="1">
          <mxGeometry x="20" y="140" width="140" height="60" as="geometry" />
        </mxCell>
        <mxCell id="fWujzALV05YjA7OikKzZ-19" style="edgeStyle=orthogonalEdgeStyle;rounded=0;orthogonalLoop=1;jettySize=auto;html=1;entryX=0.5;entryY=0;entryDx=0;entryDy=0;" parent="1" source="fWujzALV05YjA7OikKzZ-14" target="fWujzALV05YjA7OikKzZ-18" edge="1">
          <mxGeometry relative="1" as="geometry" />
        </mxCell>
        <mxCell id="fWujzALV05YjA7OikKzZ-14" value="&lt;font style=&quot;font-size: 20px;&quot;&gt;x = x**2&lt;/font&gt;" style="rounded=0;whiteSpace=wrap;html=1;" parent="1" vertex="1">
          <mxGeometry x="270" y="190" width="140" height="30" as="geometry" />
        </mxCell>
        <mxCell id="yMF8FV5LrSns_dt_HACQ-6" style="edgeStyle=orthogonalEdgeStyle;rounded=0;orthogonalLoop=1;jettySize=auto;html=1;exitX=0.5;exitY=1;exitDx=0;exitDy=0;entryX=0.5;entryY=0;entryDx=0;entryDy=0;" parent="1" source="fWujzALV05YjA7OikKzZ-18" target="fWujzALV05YjA7OikKzZ-51" edge="1">
          <mxGeometry relative="1" as="geometry">
            <mxPoint x="560" y="690" as="targetPoint" />
            <Array as="points">
              <mxPoint x="510" y="310" />
              <mxPoint x="621" y="310" />
              <mxPoint x="621" y="460" />
              <mxPoint x="560" y="460" />
              <mxPoint x="560" y="660" />
              <mxPoint x="90" y="660" />
            </Array>
          </mxGeometry>
        </mxCell>
        <mxCell id="fWujzALV05YjA7OikKzZ-18" value="&lt;font style=&quot;font-size: 20px;&quot;&gt;Вывести x&lt;/font&gt;" style="shape=parallelogram;perimeter=parallelogramPerimeter;whiteSpace=wrap;html=1;fixedSize=1;" parent="1" vertex="1">
          <mxGeometry x="440" y="230" width="140" height="30" as="geometry" />
        </mxCell>
        <mxCell id="fWujzALV05YjA7OikKzZ-30" style="edgeStyle=orthogonalEdgeStyle;rounded=0;orthogonalLoop=1;jettySize=auto;html=1;entryX=0.5;entryY=0;entryDx=0;entryDy=0;" parent="1" source="fWujzALV05YjA7OikKzZ-21" target="fWujzALV05YjA7OikKzZ-29" edge="1">
          <mxGeometry relative="1" as="geometry" />
        </mxCell>
        <mxCell id="fWujzALV05YjA7OikKzZ-31" value="&lt;font style=&quot;font-size: 20px;&quot;&gt;False&lt;/font&gt;" style="edgeLabel;html=1;align=center;verticalAlign=middle;resizable=0;points=[];" parent="fWujzALV05YjA7OikKzZ-30" vertex="1" connectable="0">
          <mxGeometry x="-0.22" relative="1" as="geometry">
            <mxPoint y="5" as="offset" />
          </mxGeometry>
        </mxCell>
        <mxCell id="fWujzALV05YjA7OikKzZ-33" style="edgeStyle=orthogonalEdgeStyle;rounded=0;orthogonalLoop=1;jettySize=auto;html=1;entryX=0.5;entryY=0;entryDx=0;entryDy=0;" parent="1" source="fWujzALV05YjA7OikKzZ-21" target="fWujzALV05YjA7OikKzZ-32" edge="1">
          <mxGeometry relative="1" as="geometry" />
        </mxCell>
        <mxCell id="fWujzALV05YjA7OikKzZ-34" value="&lt;font style=&quot;font-size: 20px;&quot;&gt;True&lt;/font&gt;" style="edgeLabel;html=1;align=center;verticalAlign=middle;resizable=0;points=[];" parent="fWujzALV05YjA7OikKzZ-33" vertex="1" connectable="0">
          <mxGeometry x="-0.2319" y="1" relative="1" as="geometry">
            <mxPoint x="16" y="1" as="offset" />
          </mxGeometry>
        </mxCell>
        <mxCell id="fWujzALV05YjA7OikKzZ-21" value="&lt;font style=&quot;font-size: 20px;&quot;&gt;x &amp;lt; 3&lt;/font&gt;" style="rhombus;whiteSpace=wrap;html=1;" parent="1" vertex="1">
          <mxGeometry x="20" y="230" width="140" height="100" as="geometry" />
        </mxCell>
        <mxCell id="fWujzALV05YjA7OikKzZ-45" style="edgeStyle=orthogonalEdgeStyle;rounded=0;orthogonalLoop=1;jettySize=auto;html=1;entryX=0.5;entryY=0;entryDx=0;entryDy=0;" parent="1" source="fWujzALV05YjA7OikKzZ-29" target="fWujzALV05YjA7OikKzZ-44" edge="1">
          <mxGeometry relative="1" as="geometry" />
        </mxCell>
        <mxCell id="fWujzALV05YjA7OikKzZ-46" value="&lt;font style=&quot;font-size: 20px;&quot;&gt;True&lt;/font&gt;" style="edgeLabel;html=1;align=center;verticalAlign=middle;resizable=0;points=[];" parent="fWujzALV05YjA7OikKzZ-45" vertex="1" connectable="0">
          <mxGeometry x="-0.5431" y="-2" relative="1" as="geometry">
            <mxPoint x="35" y="-2" as="offset" />
          </mxGeometry>
        </mxCell>
        <mxCell id="fWujzALV05YjA7OikKzZ-50" style="edgeStyle=orthogonalEdgeStyle;rounded=0;orthogonalLoop=1;jettySize=auto;html=1;exitX=0.5;exitY=1;exitDx=0;exitDy=0;entryX=0.5;entryY=0;entryDx=0;entryDy=0;" parent="1" source="fWujzALV05YjA7OikKzZ-29" target="fWujzALV05YjA7OikKzZ-49" edge="1">
          <mxGeometry relative="1" as="geometry" />
        </mxCell>
        <mxCell id="K1WeGNWxr6j8K7z0BFhe-1" value="&lt;font style=&quot;font-size: 20px;&quot;&gt;False&lt;/font&gt;" style="edgeLabel;html=1;align=center;verticalAlign=middle;resizable=0;points=[];" parent="fWujzALV05YjA7OikKzZ-50" vertex="1" connectable="0">
          <mxGeometry x="-0.1111" relative="1" as="geometry">
            <mxPoint as="offset" />
          </mxGeometry>
        </mxCell>
        <mxCell id="fWujzALV05YjA7OikKzZ-29" value="&lt;font style=&quot;font-size: 20px;&quot;&gt;x &amp;gt; 0&lt;/font&gt;" style="rhombus;whiteSpace=wrap;html=1;" parent="1" vertex="1">
          <mxGeometry x="20" y="390" width="140" height="45" as="geometry" />
        </mxCell>
        <mxCell id="fWujzALV05YjA7OikKzZ-37" style="edgeStyle=orthogonalEdgeStyle;rounded=0;orthogonalLoop=1;jettySize=auto;html=1;entryX=0.5;entryY=0;entryDx=0;entryDy=0;" parent="1" source="fWujzALV05YjA7OikKzZ-32" target="fWujzALV05YjA7OikKzZ-36" edge="1">
          <mxGeometry relative="1" as="geometry" />
        </mxCell>
        <mxCell id="fWujzALV05YjA7OikKzZ-38" value="&lt;font style=&quot;font-size: 20px;&quot;&gt;True&lt;br&gt;&lt;/font&gt;" style="edgeLabel;html=1;align=center;verticalAlign=middle;resizable=0;points=[];" parent="fWujzALV05YjA7OikKzZ-37" vertex="1" connectable="0">
          <mxGeometry x="-0.2719" y="2" relative="1" as="geometry">
            <mxPoint y="2" as="offset" />
          </mxGeometry>
        </mxCell>
        <mxCell id="fWujzALV05YjA7OikKzZ-40" style="edgeStyle=orthogonalEdgeStyle;rounded=0;orthogonalLoop=1;jettySize=auto;html=1;exitX=0.5;exitY=1;exitDx=0;exitDy=0;entryX=0.5;entryY=0;entryDx=0;entryDy=0;" parent="1" source="fWujzALV05YjA7OikKzZ-32" target="fWujzALV05YjA7OikKzZ-39" edge="1">
          <mxGeometry relative="1" as="geometry" />
        </mxCell>
        <mxCell id="fWujzALV05YjA7OikKzZ-43" value="&lt;font style=&quot;font-size: 20px;&quot;&gt;False&lt;br&gt;&lt;/font&gt;" style="edgeLabel;html=1;align=center;verticalAlign=middle;resizable=0;points=[];" parent="fWujzALV05YjA7OikKzZ-40" vertex="1" connectable="0">
          <mxGeometry x="-0.3579" y="1" relative="1" as="geometry">
            <mxPoint x="-1" y="6" as="offset" />
          </mxGeometry>
        </mxCell>
        <mxCell id="fWujzALV05YjA7OikKzZ-32" value="&lt;font style=&quot;font-size: 20px;&quot;&gt;x &amp;gt; 0&lt;br&gt;&lt;/font&gt;" style="rhombus;whiteSpace=wrap;html=1;" parent="1" vertex="1">
          <mxGeometry x="270" y="300" width="140" height="50" as="geometry" />
        </mxCell>
        <mxCell id="fWujzALV05YjA7OikKzZ-42" style="edgeStyle=orthogonalEdgeStyle;rounded=0;orthogonalLoop=1;jettySize=auto;html=1;entryX=0.5;entryY=0;entryDx=0;entryDy=0;" parent="1" source="fWujzALV05YjA7OikKzZ-36" target="fWujzALV05YjA7OikKzZ-41" edge="1">
          <mxGeometry relative="1" as="geometry" />
        </mxCell>
        <mxCell id="fWujzALV05YjA7OikKzZ-36" value="&lt;font style=&quot;font-size: 16px;&quot;&gt;x = lg(x) / cos(x) + cos(x)&lt;/font&gt;" style="whiteSpace=wrap;html=1;" parent="1" vertex="1">
          <mxGeometry x="440" y="350" width="140" height="40" as="geometry" />
        </mxCell>
        <mxCell id="yMF8FV5LrSns_dt_HACQ-2" style="edgeStyle=orthogonalEdgeStyle;rounded=0;orthogonalLoop=1;jettySize=auto;html=1;entryX=0.5;entryY=0;entryDx=0;entryDy=0;exitX=0.5;exitY=1;exitDx=0;exitDy=0;" parent="1" source="fWujzALV05YjA7OikKzZ-39" target="fWujzALV05YjA7OikKzZ-51" edge="1">
          <mxGeometry relative="1" as="geometry">
            <mxPoint x="340" y="690" as="targetPoint" />
            <Array as="points">
              <mxPoint x="340" y="640" />
              <mxPoint x="90" y="640" />
            </Array>
          </mxGeometry>
        </mxCell>
        <mxCell id="fWujzALV05YjA7OikKzZ-39" value="&lt;font style=&quot;font-size: 15px;&quot;&gt;Вывести &quot;Отрицательного логарифма не существует!&quot;&lt;/font&gt;" style="shape=parallelogram;perimeter=parallelogramPerimeter;whiteSpace=wrap;html=1;fixedSize=1;" parent="1" vertex="1">
          <mxGeometry x="270" y="400" width="140" height="110" as="geometry" />
        </mxCell>
        <mxCell id="yMF8FV5LrSns_dt_HACQ-3" style="edgeStyle=orthogonalEdgeStyle;rounded=0;orthogonalLoop=1;jettySize=auto;html=1;entryX=0.5;entryY=0;entryDx=0;entryDy=0;" parent="1" source="fWujzALV05YjA7OikKzZ-41" target="fWujzALV05YjA7OikKzZ-51" edge="1">
          <mxGeometry relative="1" as="geometry">
            <mxPoint x="270" y="700" as="targetPoint" />
            <Array as="points">
              <mxPoint x="511" y="650" />
              <mxPoint x="90" y="650" />
            </Array>
          </mxGeometry>
        </mxCell>
        <mxCell id="fWujzALV05YjA7OikKzZ-41" value="&lt;font style=&quot;font-size: 20px;&quot;&gt;Вывести x&lt;/font&gt;" style="shape=parallelogram;perimeter=parallelogramPerimeter;whiteSpace=wrap;html=1;fixedSize=1;" parent="1" vertex="1">
          <mxGeometry x="440" y="410" width="140" height="30" as="geometry" />
        </mxCell>
        <mxCell id="fWujzALV05YjA7OikKzZ-48" style="edgeStyle=orthogonalEdgeStyle;rounded=0;orthogonalLoop=1;jettySize=auto;html=1;entryX=0.5;entryY=0;entryDx=0;entryDy=0;" parent="1" source="fWujzALV05YjA7OikKzZ-44" target="fWujzALV05YjA7OikKzZ-47" edge="1">
          <mxGeometry relative="1" as="geometry" />
        </mxCell>
        <mxCell id="fWujzALV05YjA7OikKzZ-44" value="&lt;font style=&quot;font-size: 20px;&quot;&gt;x = lg(x) * e**x&lt;/font&gt;" style="whiteSpace=wrap;html=1;" parent="1" vertex="1">
          <mxGeometry x="170" y="520" width="140" height="30" as="geometry" />
        </mxCell>
        <mxCell id="fWujzALV05YjA7OikKzZ-53" style="edgeStyle=orthogonalEdgeStyle;rounded=0;orthogonalLoop=1;jettySize=auto;html=1;entryX=0.5;entryY=0;entryDx=0;entryDy=0;exitX=0.5;exitY=1;exitDx=0;exitDy=0;" parent="1" source="fWujzALV05YjA7OikKzZ-47" target="fWujzALV05YjA7OikKzZ-51" edge="1">
          <mxGeometry relative="1" as="geometry">
            <Array as="points">
              <mxPoint x="240" y="630" />
              <mxPoint x="90" y="630" />
            </Array>
          </mxGeometry>
        </mxCell>
        <mxCell id="fWujzALV05YjA7OikKzZ-47" value="&lt;font style=&quot;font-size: 20px;&quot;&gt;Вывести x&lt;/font&gt;" style="shape=parallelogram;perimeter=parallelogramPerimeter;whiteSpace=wrap;html=1;fixedSize=1;" parent="1" vertex="1">
          <mxGeometry x="170" y="585" width="140" height="30" as="geometry" />
        </mxCell>
        <mxCell id="yMF8FV5LrSns_dt_HACQ-1" style="edgeStyle=orthogonalEdgeStyle;rounded=0;orthogonalLoop=1;jettySize=auto;html=1;entryX=0.5;entryY=0;entryDx=0;entryDy=0;" parent="1" source="fWujzALV05YjA7OikKzZ-49" target="fWujzALV05YjA7OikKzZ-51" edge="1">
          <mxGeometry relative="1" as="geometry" />
        </mxCell>
        <mxCell id="fWujzALV05YjA7OikKzZ-49" value="&lt;font style=&quot;font-size: 15px;&quot;&gt;Вывести &quot;Отрицательного логарифма не существует!&quot;&lt;/font&gt;" style="shape=parallelogram;perimeter=parallelogramPerimeter;whiteSpace=wrap;html=1;fixedSize=1;" parent="1" vertex="1">
          <mxGeometry x="20" y="480" width="140" height="110" as="geometry" />
        </mxCell>
        <mxCell id="fWujzALV05YjA7OikKzZ-51" value="&lt;font style=&quot;&quot;&gt;&lt;font style=&quot;font-size: 25px;&quot;&gt;Конец&lt;/font&gt;&lt;br&gt;&lt;/font&gt;" style="rounded=1;whiteSpace=wrap;html=1;" parent="1" vertex="1">
          <mxGeometry x="20" y="680" width="140" height="60" as="geometry" />
        </mxCell>
      </root>
    </mxGraphModel>
  </diagram>
</mxfile>
